<svg viewBox="0 0 28 28" fill="none" xmlns="http://www.w3.org/2000/svg">
  <path
    d="M25.2242 14.9239C25.0053 14.6684 24.8846 14.34 24.8846 14C24.8846 13.66 25.0053 13.3316 25.2242 13.0761L26.9723 11.0604C27.1649 10.8402 27.2845 10.5631 27.3139 10.2688C27.3434 9.97458 27.2811 9.67835 27.1361 9.42262L24.4048 4.57928C24.2613 4.32385 24.0428 4.12137 23.7804 4.00072C23.518 3.88007 23.2252 3.8474 22.9436 3.90737L20.3762 4.4393C20.0495 4.50849 19.7094 4.45272 19.4201 4.28252C19.1308 4.11232 18.9122 3.83946 18.8057 3.51543L17.9727 0.953774C17.8811 0.675743 17.7065 0.434256 17.4737 0.263447C17.2409 0.0926379 16.9616 0.00114616 16.6753 0.00190368H11.2127C10.9149 -0.014029 10.6202 0.0703913 10.3736 0.242271C10.127 0.41415 9.94211 0.66404 9.84709 0.953774L9.08233 3.51543C8.97581 3.83946 8.75727 4.11232 8.46794 4.28252C8.17862 4.45272 7.83852 4.50849 7.51184 4.4393L4.87615 3.90737C4.60923 3.86871 4.33713 3.91188 4.09411 4.03145C3.85109 4.15102 3.64802 4.34163 3.5105 4.57928L0.779216 9.42262C0.630579 9.6755 0.563748 9.97007 0.588275 10.2642C0.612803 10.5584 0.727434 10.837 0.91578 11.0604L2.65015 13.0761C2.86909 13.3316 2.98983 13.66 2.98983 14C2.98983 14.34 2.86909 14.6684 2.65015 14.9239L0.91578 16.9396C0.727434 17.163 0.612803 17.4416 0.588275 17.7358C0.563748 18.0299 0.630579 18.3245 0.779216 18.5774L3.5105 23.4207C3.65403 23.6762 3.87256 23.8786 4.13495 23.9993C4.39733 24.1199 4.69018 24.1526 4.97174 24.0926L7.53915 23.5607C7.86584 23.4915 8.20593 23.5473 8.49525 23.7175C8.78458 23.8877 9.00312 24.1605 9.10964 24.4846L9.94268 27.0462C10.0377 27.336 10.2226 27.5858 10.4692 27.7577C10.7158 27.9296 11.0105 28.014 11.3083 27.9981H16.7709C17.0572 27.9989 17.3365 27.9074 17.5693 27.7366C17.8021 27.5657 17.9766 27.3243 18.0683 27.0462L18.9013 24.4846C19.0078 24.1605 19.2264 23.8877 19.5157 23.7175C19.805 23.5473 20.1451 23.4915 20.4718 23.5607L23.0392 24.0926C23.3208 24.1526 23.6136 24.1199 23.876 23.9993C24.1384 23.8786 24.3569 23.6762 24.5004 23.4207L27.2317 18.5774C27.3767 18.3217 27.439 18.0254 27.4095 17.7312C27.3801 17.4369 27.2605 17.1598 27.0679 16.9396L25.2242 14.9239ZM23.1894 16.7996L24.2819 18.0594L22.5339 21.167L20.9225 20.8311C19.9389 20.625 18.9157 20.7962 18.0472 21.3123C17.1787 21.8284 16.5253 22.6534 16.211 23.6307L15.692 25.1985H12.196L11.7044 23.6027C11.3901 22.6254 10.7366 21.8004 9.86812 21.2843C8.99961 20.7682 7.97646 20.597 6.99289 20.8031L5.38143 21.139L3.6061 18.0455L4.69861 16.7856C5.37045 16.0157 5.74187 15.019 5.74187 13.986C5.74187 12.953 5.37045 11.9563 4.69861 11.1864L3.6061 9.92655L5.35412 6.84697L6.96558 7.18293C7.94914 7.38901 8.97229 7.21775 9.84081 6.70167C10.7093 6.18559 11.3628 5.3606 11.677 4.38331L12.196 2.80152H15.692L16.211 4.39731C16.5253 5.3746 17.1787 6.19958 18.0472 6.71567C18.9157 7.23175 19.9389 7.40301 20.9225 7.19692L22.5339 6.86097L24.2819 9.96855L23.1894 11.2284C22.5251 11.9965 22.1583 12.9875 22.1583 14.014C22.1583 15.0405 22.5251 16.0315 23.1894 16.7996ZM13.944 8.40076C12.8636 8.40076 11.8075 8.72915 10.9092 9.3444C10.0109 9.95966 9.31071 10.8341 8.89726 11.8573C8.48381 12.8804 8.37563 14.0062 8.58641 15.0924C8.79718 16.1785 9.31744 17.1762 10.0814 17.9593C10.8453 18.7423 11.8187 19.2756 12.8783 19.4917C13.938 19.7077 15.0363 19.5968 16.0345 19.173C17.0326 18.7492 17.8857 18.0316 18.486 17.1108C19.0862 16.19 19.4066 15.1074 19.4066 14C19.4066 12.515 18.8311 11.0908 17.8066 10.0407C16.7822 8.99068 15.3928 8.40076 13.944 8.40076ZM13.944 16.7996C13.4038 16.7996 12.8758 16.6354 12.4266 16.3278C11.9774 16.0202 11.6274 15.5829 11.4206 15.0714C11.2139 14.5598 11.1598 13.9969 11.2652 13.4538C11.3706 12.9107 11.6307 12.4119 12.0127 12.0204C12.3947 11.6288 12.8814 11.3622 13.4112 11.2542C13.941 11.1462 14.4902 11.2016 14.9892 11.4135C15.4883 11.6254 15.9149 11.9842 16.215 12.4446C16.5151 12.905 16.6753 13.4463 16.6753 14C16.6753 14.7425 16.3875 15.4546 15.8753 15.9796C15.3631 16.5047 14.6684 16.7996 13.944 16.7996Z"
    fill="#dfaff7" />
</svg>