<svg width="1563" height="1551" viewBox="0 0 1563 1551" fill="none" xmlns="http://www.w3.org/2000/svg">
<path d="M781 218L1264 496.86V1054.58L781 1333.44L298 1054.58V496.86L781 218Z" fill="url(#paint0_linear_3361_1605)"/>
<path d="M299 498L480.5 602L571.855 895.233L299 1056V845.5L299 558.5L299 498Z" fill="#EC4F2E" fill-opacity="0.66"/>
<path d="M666.5 285.5L781.001 218.5V412.207L522.06 624.34L298 496.5L474 395.5L666.5 285.5Z" fill="#DD4A35"/>
<path d="M1207.5 1087.5L1140 1126.5L991.5 655L1264 497V798.5V1054.5L1207.5 1087.5Z" fill="#FFE7A8"/>
<path d="M948 1234.5L781 1333V1137.24L1088.5 952L1264 1055L1122 1136.5L948 1234.5Z" fill="#FA9D45"/>
<path d="M781.026 440L1094.11 620.761V982.284L781.026 1163.04L467.939 982.284V620.761L781.026 440Z" fill="#EC6F37"/>
<mask id="mask0_3361_1605" style="mask-type:alpha" maskUnits="userSpaceOnUse" x="467" y="413" width="628" height="724">
<path d="M781.026 413.201L1094.11 593.962V955.485L781.026 1136.25L467.939 955.485V593.962L781.026 413.201Z" fill="white"/>
</mask>
<g mask="url(#mask0_3361_1605)">
<path d="M781.026 413.201L1094.11 593.962V955.485L781.026 1136.25L467.939 955.485V593.962L781.026 413.201Z" fill="#D14527"/>
<path d="M466.313 590.477L780.263 772.732V1137.24L466.313 1319.5L152.363 1137.24V772.732L466.313 590.477Z" fill="#FCB859"/>
<path d="M781.026 52.6748L1094.11 233.436V594.958L781.026 775.72L467.939 594.958V233.436L781.026 52.6748Z" fill="#FEE193"/>
</g>
<path d="M310 497.75L465.75 407.965L621.5 497.75L465.75 588.451L310 497.75Z" fill="#BD3625"/>
<path d="M465.75 491.337L465.75 407.965L621.5 497.75L465.75 588.451L465.75 491.337Z" fill="#69202A"/>
<path d="M468 405.75L623.75 315.965L779.5 405.75L623.75 496.451L468 405.75Z" fill="#BD3625"/>
<path d="M623.75 399.337L623.75 315.965L779.5 405.75L623.75 496.451L623.75 399.337Z" fill="#69202A"/>
<path d="M625 313.75L780.75 223.965L936.5 313.75L780.75 404.451L625 313.75Z" fill="#BD3625"/>
<path d="M780.75 307.337L780.75 223.965L936.5 313.75L780.75 404.451L780.75 307.337Z" fill="#69202A"/>
<path d="M784 405.75L939.75 315.965L1095.5 405.75L939.75 496.451L784 405.75Z" fill="#BD3625"/>
<path d="M939.75 399.337L939.75 315.965L1095.5 405.75L939.75 496.451L939.75 399.337Z" fill="#69202A"/>
<path d="M943 497.75L1098.75 407.965L1254.5 497.75L1098.75 588.451L943 497.75Z" fill="#BD3625"/>
<path d="M1098.75 491.337L1098.75 407.965L1254.5 497.75L1098.75 588.451L1098.75 491.337Z" fill="#69202A"/>
<path d="M625 507.75L780.75 417.965L936.5 507.75L780.75 598.451L625 507.75Z" fill="#FDBF5F"/>
<path d="M780.75 501.337L780.75 417.965L936.5 507.75L780.75 598.451L780.75 501.337Z" fill="#E06636"/>
<path d="M781.009 599L934.303 687.745V865.235L781.009 953.979L627.715 865.235V687.745L781.009 599Z" fill="#FEFEFE"/>
<circle cx="781.009" cy="744.263" r="50.9862" fill="black"/>
<path d="M781.009 731.756L818.499 863.791H743.519L781.009 731.756Z" fill="black"/>
<defs>
<linearGradient id="paint0_linear_3361_1605" x1="865" y1="539" x2="680" y2="1025" gradientUnits="userSpaceOnUse">
<stop stop-color="#E54F34"/>
<stop offset="1" stop-color="#FDD684"/>
</linearGradient>
</defs>
</svg>
